<svg width="195" height="43" viewBox="0 0 195 43" fill="none" xmlns="http://www.w3.org/2000/svg">
<path d="M53.138 11.7545C55.0447 11.7545 56.7173 12.1271 58.156 12.8725C59.612 13.6178 60.73 14.6838 61.51 16.0705C62.3073 17.4398 62.706 19.0345 62.706 20.8545C62.706 22.6745 62.3073 24.2691 61.51 25.6385C60.73 26.9905 59.612 28.0391 58.156 28.7845C56.7173 29.5298 55.0447 29.9025 53.138 29.9025H46.794V11.7545H53.138ZM53.008 26.8085C54.9147 26.8085 56.388 26.2885 57.428 25.2485C58.468 24.2085 58.988 22.7438 58.988 20.8545C58.988 18.9651 58.468 17.4918 57.428 16.4345C56.388 15.3598 54.9147 14.8225 53.008 14.8225H50.434V26.8085H53.008ZM64.7547 22.6485C64.7547 21.1925 65.0407 19.9011 65.6127 18.7745C66.2021 17.6478 66.9907 16.7811 67.9787 16.1745C68.9841 15.5678 70.1021 15.2645 71.3327 15.2645C72.4074 15.2645 73.3434 15.4811 74.1407 15.9145C74.9554 16.3478 75.6054 16.8938 76.0907 17.5525V15.4985H79.7567V29.9025H76.0907V27.7965C75.6227 28.4725 74.9727 29.0358 74.1407 29.4865C73.3261 29.9198 72.3814 30.1365 71.3067 30.1365C70.0934 30.1365 68.9841 29.8245 67.9787 29.2005C66.9907 28.5765 66.2021 27.7011 65.6127 26.5745C65.0407 25.4305 64.7547 24.1218 64.7547 22.6485ZM76.0907 22.7005C76.0907 21.8165 75.9174 21.0625 75.5707 20.4385C75.2241 19.7971 74.7561 19.3118 74.1667 18.9825C73.5774 18.6358 72.9447 18.4625 72.2687 18.4625C71.5927 18.4625 70.9687 18.6271 70.3967 18.9565C69.8247 19.2858 69.3567 19.7711 68.9927 20.4125C68.6461 21.0365 68.4727 21.7818 68.4727 22.6485C68.4727 23.5151 68.6461 24.2778 68.9927 24.9365C69.3567 25.5778 69.8247 26.0718 70.3967 26.4185C70.9861 26.7651 71.6101 26.9385 72.2687 26.9385C72.9447 26.9385 73.5774 26.7738 74.1667 26.4445C74.7561 26.0978 75.2241 25.6125 75.5707 24.9885C75.9174 24.3471 76.0907 23.5845 76.0907 22.7005ZM89.0838 30.1365C87.9051 30.1365 86.8478 29.9285 85.9118 29.5125C84.9758 29.0791 84.2305 28.4985 83.6758 27.7705C83.1385 27.0425 82.8438 26.2365 82.7918 25.3525H86.4578C86.5271 25.9071 86.7958 26.3665 87.2638 26.7305C87.7491 27.0945 88.3471 27.2765 89.0578 27.2765C89.7511 27.2765 90.2885 27.1378 90.6698 26.8605C91.0685 26.5831 91.2678 26.2278 91.2678 25.7945C91.2678 25.3265 91.0251 24.9798 90.5398 24.7545C90.0718 24.5118 89.3178 24.2518 88.2778 23.9745C87.2031 23.7145 86.3191 23.4458 85.6258 23.1685C84.9498 22.8911 84.3605 22.4665 83.8578 21.8945C83.3725 21.3225 83.1298 20.5511 83.1298 19.5805C83.1298 18.7831 83.3551 18.0551 83.8058 17.3965C84.2738 16.7378 84.9325 16.2178 85.7818 15.8365C86.6485 15.4551 87.6625 15.2645 88.8238 15.2645C90.5398 15.2645 91.9091 15.6978 92.9318 16.5645C93.9545 17.4138 94.5178 18.5665 94.6218 20.0225H91.1378C91.0858 19.4505 90.8431 18.9998 90.4098 18.6705C89.9938 18.3238 89.4305 18.1505 88.7198 18.1505C88.0611 18.1505 87.5498 18.2718 87.1858 18.5145C86.8391 18.7571 86.6658 19.0951 86.6658 19.5285C86.6658 20.0138 86.9085 20.3865 87.3938 20.6465C87.8791 20.8891 88.6331 21.1405 89.6558 21.4005C90.6958 21.6605 91.5538 21.9291 92.2298 22.2065C92.9058 22.4838 93.4865 22.9171 93.9718 23.5065C94.4745 24.0785 94.7345 24.8411 94.7518 25.7945C94.7518 26.6265 94.5178 27.3718 94.0498 28.0305C93.5991 28.6891 92.9405 29.2091 92.0738 29.5905C91.2245 29.9545 90.2278 30.1365 89.0838 30.1365ZM106.112 15.2905C107.204 15.2905 108.174 15.5331 109.024 16.0185C109.873 16.4865 110.532 17.1885 111 18.1245C111.485 19.0431 111.728 20.1525 111.728 21.4525V29.9025H108.088V21.9465C108.088 20.8025 107.802 19.9271 107.23 19.3205C106.658 18.6965 105.878 18.3845 104.89 18.3845C103.884 18.3845 103.087 18.6965 102.498 19.3205C101.926 19.9271 101.64 20.8025 101.64 21.9465V29.9025H97.9998V10.6625H101.64V17.2925C102.108 16.6685 102.732 16.1831 103.512 15.8365C104.292 15.4725 105.158 15.2905 106.112 15.2905ZM119.089 17.6045C119.557 16.9111 120.199 16.3478 121.013 15.9145C121.845 15.4811 122.79 15.2645 123.847 15.2645C125.078 15.2645 126.187 15.5678 127.175 16.1745C128.181 16.7811 128.969 17.6478 129.541 18.7745C130.131 19.8838 130.425 21.1751 130.425 22.6485C130.425 24.1218 130.131 25.4305 129.541 26.5745C128.969 27.7011 128.181 28.5765 127.175 29.2005C126.187 29.8245 125.078 30.1365 123.847 30.1365C122.773 30.1365 121.828 29.9285 121.013 29.5125C120.216 29.0791 119.575 28.5245 119.089 27.8485V29.9025H115.449V10.6625H119.089V17.6045ZM126.707 22.6485C126.707 21.7818 126.525 21.0365 126.161 20.4125C125.815 19.7711 125.347 19.2858 124.757 18.9565C124.185 18.6271 123.561 18.4625 122.885 18.4625C122.227 18.4625 121.603 18.6358 121.013 18.9825C120.441 19.3118 119.973 19.7971 119.609 20.4385C119.263 21.0798 119.089 21.8338 119.089 22.7005C119.089 23.5671 119.263 24.3211 119.609 24.9625C119.973 25.6038 120.441 26.0978 121.013 26.4445C121.603 26.7738 122.227 26.9385 122.885 26.9385C123.561 26.9385 124.185 26.7651 124.757 26.4185C125.347 26.0718 125.815 25.5778 126.161 24.9365C126.525 24.2951 126.707 23.5325 126.707 22.6485ZM139.726 30.1365C138.34 30.1365 137.092 29.8331 135.982 29.2265C134.873 28.6025 133.998 27.7271 133.356 26.6005C132.732 25.4738 132.42 24.1738 132.42 22.7005C132.42 21.2271 132.741 19.9271 133.382 18.8005C134.041 17.6738 134.934 16.8071 136.06 16.2005C137.187 15.5765 138.444 15.2645 139.83 15.2645C141.217 15.2645 142.474 15.5765 143.6 16.2005C144.727 16.8071 145.611 17.6738 146.252 18.8005C146.911 19.9271 147.24 21.2271 147.24 22.7005C147.24 24.1738 146.902 25.4738 146.226 26.6005C145.568 27.7271 144.666 28.6025 143.522 29.2265C142.396 29.8331 141.13 30.1365 139.726 30.1365ZM139.726 26.9645C140.385 26.9645 141 26.8085 141.572 26.4965C142.162 26.1671 142.63 25.6818 142.976 25.0405C143.323 24.3991 143.496 23.6191 143.496 22.7005C143.496 21.3311 143.132 20.2825 142.404 19.5545C141.694 18.8091 140.818 18.4365 139.778 18.4365C138.738 18.4365 137.863 18.8091 137.152 19.5545C136.459 20.2825 136.112 21.3311 136.112 22.7005C136.112 24.0698 136.45 25.1271 137.126 25.8725C137.82 26.6005 138.686 26.9645 139.726 26.9645ZM149.234 22.6485C149.234 21.1925 149.52 19.9011 150.092 18.7745C150.682 17.6478 151.47 16.7811 152.458 16.1745C153.464 15.5678 154.582 15.2645 155.812 15.2645C156.887 15.2645 157.823 15.4811 158.62 15.9145C159.435 16.3478 160.085 16.8938 160.57 17.5525V15.4985H164.236V29.9025H160.57V27.7965C160.102 28.4725 159.452 29.0358 158.62 29.4865C157.806 29.9198 156.861 30.1365 155.786 30.1365C154.573 30.1365 153.464 29.8245 152.458 29.2005C151.47 28.5765 150.682 27.7011 150.092 26.5745C149.52 25.4305 149.234 24.1218 149.234 22.6485ZM160.57 22.7005C160.57 21.8165 160.397 21.0625 160.05 20.4385C159.704 19.7971 159.236 19.3118 158.646 18.9825C158.057 18.6358 157.424 18.4625 156.748 18.4625C156.072 18.4625 155.448 18.6271 154.876 18.9565C154.304 19.2858 153.836 19.7711 153.472 20.4125C153.126 21.0365 152.952 21.7818 152.952 22.6485C152.952 23.5151 153.126 24.2778 153.472 24.9365C153.836 25.5778 154.304 26.0718 154.876 26.4185C155.466 26.7651 156.09 26.9385 156.748 26.9385C157.424 26.9385 158.057 26.7738 158.646 26.4445C159.236 26.0978 159.704 25.6125 160.05 24.9885C160.397 24.3471 160.57 23.5845 160.57 22.7005ZM171.691 17.7345C172.16 16.9718 172.766 16.3738 173.512 15.9405C174.274 15.5071 175.141 15.2905 176.111 15.2905V19.1125H175.149C174.006 19.1125 173.139 19.3811 172.55 19.9185C171.977 20.4558 171.691 21.3918 171.691 22.7265V29.9025H168.051V15.4985H171.691V17.7345ZM177.887 22.6485C177.887 21.1925 178.173 19.9011 178.745 18.7745C179.335 17.6478 180.132 16.7811 181.137 16.1745C182.143 15.5678 183.261 15.2645 184.491 15.2645C185.427 15.2645 186.32 15.4725 187.169 15.8885C188.019 16.2871 188.695 16.8245 189.197 17.5005V10.6625H192.889V29.9025H189.197V27.7705C188.747 28.4811 188.114 29.0531 187.299 29.4865C186.485 29.9198 185.54 30.1365 184.465 30.1365C183.252 30.1365 182.143 29.8245 181.137 29.2005C180.132 28.5765 179.335 27.7011 178.745 26.5745C178.173 25.4305 177.887 24.1218 177.887 22.6485ZM189.223 22.7005C189.223 21.8165 189.05 21.0625 188.703 20.4385C188.357 19.7971 187.889 19.3118 187.299 18.9825C186.71 18.6358 186.077 18.4625 185.401 18.4625C184.725 18.4625 184.101 18.6271 183.529 18.9565C182.957 19.2858 182.489 19.7711 182.125 20.4125C181.779 21.0365 181.605 21.7818 181.605 22.6485C181.605 23.5151 181.779 24.2778 182.125 24.9365C182.489 25.5778 182.957 26.0718 183.529 26.4185C184.119 26.7651 184.743 26.9385 185.401 26.9385C186.077 26.9385 186.71 26.7738 187.299 26.4445C187.889 26.0978 188.357 25.6125 188.703 24.9885C189.05 24.3471 189.223 23.5845 189.223 22.7005Z" fill="black"/>
<path d="M18.5002 39.2681C17.4673 39.2681 16.419 39.0209 15.6019 38.51L7.12278 33.2855C3.66945 30.7968 3.45361 30.4177 3.45361 26.5117V16.9856C3.45361 13.0795 3.65403 12.7005 7.0457 10.2448L15.5865 4.97081C17.2052 3.96546 19.749 3.96546 21.3677 4.97081L29.8777 10.2118C33.3311 12.7005 33.5469 13.0795 33.5469 16.9856V26.4952C33.5469 30.4013 33.3465 30.7803 29.9548 33.236L21.414 38.51C20.5815 39.0209 19.5331 39.2681 18.5002 39.2681ZM18.5002 6.70133C17.8527 6.70133 17.2207 6.83318 16.7736 7.11336L8.29445 12.3544C5.78153 14.1673 5.78153 14.1673 5.78153 16.9856V26.4952C5.78153 29.3135 5.78153 29.3135 8.35611 31.1759L16.7736 36.3674C17.6832 36.9278 19.3327 36.9278 20.2423 36.3674L28.7215 31.1264C31.219 29.3135 31.219 29.3135 31.219 26.4952V16.9856C31.219 14.1673 31.219 14.1673 28.6444 12.3049L20.2269 7.11336C19.7798 6.83318 19.1477 6.70133 18.5002 6.70133Z" fill="black"/>
<path d="M18.5 27.9294C15.3088 27.9294 12.7188 25.1605 12.7188 21.7489C12.7188 18.3373 15.3088 15.5685 18.5 15.5685C21.6912 15.5685 24.2812 18.3373 24.2812 21.7489C24.2812 25.1605 21.6912 27.9294 18.5 27.9294ZM18.5 18.0407C16.5883 18.0407 15.0312 19.7053 15.0312 21.7489C15.0312 23.7926 16.5883 25.4572 18.5 25.4572C20.4117 25.4572 21.9688 23.7926 21.9688 21.7489C21.9688 19.7053 20.4117 18.0407 18.5 18.0407Z" fill="black"/>
</svg>
