<svg width="31" height="31" viewBox="0 0 31 31" fill="none" xmlns="http://www.w3.org/2000/svg">
<path d="M15.2732 3.65636C19.2782 3.65636 19.7532 3.67136 21.3344 3.74386C22.9694 3.81886 24.6532 4.19136 25.8444 5.38261C27.0469 6.58511 27.4082 8.25261 27.4832 9.89261C27.5557 11.4739 27.5707 11.9489 27.5707 15.9539C27.5707 19.9589 27.5557 20.4339 27.4832 22.0151C27.4094 23.6414 27.0282 25.3414 25.8444 26.5251C24.6419 27.7276 22.9757 28.0889 21.3344 28.1639C19.7532 28.2364 19.2782 28.2514 15.2732 28.2514C11.2682 28.2514 10.7932 28.2364 9.21194 28.1639C7.59819 28.0901 5.87569 27.7001 4.70194 26.5251C3.50569 25.3289 3.13819 23.6451 3.06319 22.0151C2.99069 20.4339 2.97569 19.9589 2.97569 15.9539C2.97569 11.9489 2.99069 11.4739 3.06319 9.89261C3.13694 8.27261 3.52194 6.56261 4.70194 5.38261C5.90194 4.18261 7.57569 3.81886 9.21194 3.74386C10.7932 3.67136 11.2682 3.65636 15.2732 3.65636ZM15.2732 0.953857C11.1994 0.953857 10.6882 0.971357 9.08819 1.04386C6.76944 1.15011 4.46694 1.79511 2.79069 3.47136C1.10819 5.15386 0.469443 7.45136 0.363193 9.76886C0.290693 11.3689 0.273193 11.8801 0.273193 15.9539C0.273193 20.0276 0.290693 20.5389 0.363193 22.1389C0.469443 24.4551 1.11694 26.7639 2.79069 28.4364C4.47194 30.1176 6.77319 30.7576 9.08819 30.8639C10.6882 30.9364 11.1994 30.9539 15.2732 30.9539C19.3469 30.9539 19.8582 30.9364 21.4582 30.8639C23.7757 30.7576 26.0807 30.1114 27.7557 28.4364C29.4394 26.7526 30.0769 24.4564 30.1832 22.1389C30.2557 20.5389 30.2732 20.0276 30.2732 15.9539C30.2732 11.8801 30.2557 11.3689 30.1832 9.76886C30.0769 7.45011 29.4307 5.14636 27.7557 3.47136C26.0769 1.79261 23.7694 1.14886 21.4582 1.04386C19.8582 0.971357 19.3469 0.953857 15.2732 0.953857Z" fill="white"/>
<path d="M15.2733 8.25146C11.0196 8.25146 7.5708 11.7002 7.5708 15.954C7.5708 20.2077 11.0196 23.6565 15.2733 23.6565C19.5271 23.6565 22.9758 20.2077 22.9758 15.954C22.9758 11.7002 19.5271 8.25146 15.2733 8.25146ZM15.2733 20.954C12.5121 20.954 10.2733 18.7152 10.2733 15.954C10.2733 13.1927 12.5121 10.954 15.2733 10.954C18.0346 10.954 20.2733 13.1927 20.2733 15.954C20.2733 18.7152 18.0346 20.954 15.2733 20.954Z" fill="white"/>
<path d="M23.2807 9.74624C24.2748 9.74624 25.0807 8.94035 25.0807 7.94624C25.0807 6.95213 24.2748 6.14624 23.2807 6.14624C22.2866 6.14624 21.4807 6.95213 21.4807 7.94624C21.4807 8.94035 22.2866 9.74624 23.2807 9.74624Z" fill="white"/>
</svg>
