<svg width="31" height="31" viewBox="0 0 31 31" fill="none" xmlns="http://www.w3.org/2000/svg">
<path d="M15.2732 0.953857C6.98831 0.953857 0.273193 7.66897 0.273193 15.9539C0.273193 24.2387 6.98831 30.9539 15.2732 30.9539C23.5581 30.9539 30.2732 24.2387 30.2732 15.9539C30.2732 7.66897 23.5581 0.953857 15.2732 0.953857ZM10.7034 23.8201H7.04936V12.073H10.7034V23.8201ZM8.87203 10.4597C7.70343 10.4597 6.75284 9.50909 6.75284 8.34048C6.75284 7.17188 7.70343 6.2213 8.87203 6.2213C10.0406 6.2213 10.9912 7.17188 10.9912 8.34048C10.9912 9.50909 10.0406 10.4597 8.87203 10.4597ZM24.3691 23.8201H20.7238V18.1079C20.7238 16.7475 20.6976 14.9946 18.8226 14.9946C16.9214 14.9946 16.6337 16.4771 16.6337 18.012V23.8289H12.9883V12.073H16.4941V13.6777H16.5377C17.2528 12.4568 18.5784 11.7242 19.9912 11.7765C23.6889 11.7765 24.3691 14.2097 24.3691 17.3754V23.8201Z" fill="white"/>
</svg>
