<svg width="109" height="19" viewBox="0 0 109 19" fill="none" xmlns="http://www.w3.org/2000/svg">
<path d="M11.466 0.679688L13.8603 6.84759H21.6083L15.34 10.6596L17.7343 16.8275L11.466 13.0155L5.19771 16.8275L7.59198 10.6596L1.3237 6.84759H9.07172L11.466 0.679688Z" fill="#F8A80E"/>
<path d="M33.0495 0.679688L35.5008 6.84759H43.4333L37.0157 10.6596L39.467 16.8275L33.0495 13.0155L26.632 16.8275L29.0832 10.6596L22.6657 6.84759H30.5982L33.0495 0.679688Z" fill="#F8A80E"/>
<path d="M54.6309 0.679688L57.0252 6.84759H64.7732L58.5049 10.6596L60.8992 16.8275L54.6309 13.0155L48.3626 16.8275L50.7569 10.6596L44.4886 6.84759H52.2366L54.6309 0.679688Z" fill="#F8A80E"/>
<path d="M76.2151 0.679688L78.6664 6.84759H86.5989L80.1814 10.6596L82.6327 16.8275L76.2151 13.0155L69.7976 16.8275L72.2489 10.6596L65.8314 6.84759H73.7639L76.2151 0.679688Z" fill="#F8A80E"/>
<path d="M97.7957 0.679688L100.19 6.84759H107.938L101.67 10.6596L104.064 16.8275L97.7957 13.0155L91.5274 16.8275L93.9217 10.6596L87.6534 6.84759H95.4014L97.7957 0.679688Z" fill="#F8A80E"/>
</svg>
